<?xml version="1.0" encoding="UTF-8"?>
<svg xmlns="http://www.w3.org/2000/svg" viewBox="0 0 513 513">
  <defs>
    <style>
      .cls-1 {
        fill: #e6356d;
      }

      .cls-1, .cls-2, .cls-3 {
        stroke-width: 0px;
      }

      .cls-2 {
        fill: #00000d;
      }

      .cls-3 {
        fill: #b435e6;
      }
    </style>
  </defs>
  <g id="squid">
    <g id="head">
      <rect class="cls-3" x="124.32" y="212.84" width="267.53" height="44.52"/>
      <rect class="cls-3" x="165.28" y="255.84" width="185.62" height="44.52"/>
      <rect class="cls-3" x="165.28" y="53.76" width="185.62" height="44.52"/>
      <rect class="cls-3" x="124.32" y="98.45" width="267.53" height="44.52"/>
      <rect class="cls-3" x="97.6" y="142.45" width="320.98" height="71.14"/>
    </g>
    <g id="tentacles">
      <rect class="cls-3" x="140.28" y="298.84" width="44.52" height="44.52"/>
      <rect class="cls-3" x="219.83" y="298.84" width="44.52" height="44.52"/>
      <rect class="cls-3" x="310.83" y="298.84" width="44.52" height="44.52"/>
      <rect class="cls-3" x="130.83" y="338.84" width="44.52" height="44.52"/>
      <rect class="cls-3" x="73.09" y="358.84" width="72.26" height="44.52"/>
      <rect class="cls-3" x="50.83" y="318.84" width="44.52" height="44.52"/>
      <rect class="cls-3" x="210.83" y="338.84" width="44.52" height="44.52"/>
      <rect class="cls-3" x="200.83" y="378.84" width="44.52" height="44.52"/>
      <rect class="cls-3" x="145.35" y="418.84" width="70" height="44.52"/>
      <rect class="cls-3" x="320.83" y="338.84" width="44.52" height="62.26"/>
      <rect class="cls-3" x="340.83" y="388.84" width="74.57" height="44.52"/>
      <rect class="cls-3" x="400.83" y="358.84" width="44.52" height="44.52"/>
      <rect class="cls-3" x="420.83" y="328.84" width="44.52" height="44.52"/>
    </g>
    <g>
      <rect class="cls-1" x="180.86" y="66.3" width="185.62" height="44.52"/>
      <polygon class="cls-1" points="480.93 341.38 436.41 341.38 436.41 371.38 416.41 371.38 416.41 401.38 380.93 401.38 380.93 351.38 370.93 351.38 370.93 311.38 366.48 311.38 366.48 269.9 407.44 269.9 407.44 226.12 434.16 226.12 434.16 154.98 407.44 154.98 407.44 110.98 139.9 110.98 139.9 154.98 113.18 154.98 113.18 226.12 139.9 226.12 139.9 269.9 180.86 269.9 180.86 311.38 155.86 311.38 155.86 351.38 146.41 351.38 146.41 371.38 110.93 371.38 110.93 331.38 66.41 331.38 66.41 375.9 88.67 375.9 88.67 415.9 160.93 415.9 160.93 395.9 190.93 395.9 190.93 355.9 200.38 355.9 200.38 312.9 235.41 312.9 235.41 351.38 226.41 351.38 226.41 391.38 216.41 391.38 216.41 431.38 160.93 431.38 160.93 475.9 230.93 475.9 230.93 435.9 260.93 435.9 260.93 395.9 270.93 395.9 270.93 355.9 279.93 355.9 279.93 312.9 326.41 312.9 326.41 355.9 336.41 355.9 336.41 413.64 356.41 413.64 356.41 445.9 430.98 445.9 430.98 415.9 460.93 415.9 460.93 385.9 480.93 385.9 480.93 341.38"/>
    </g>
  </g>
  <g id="eyes">
    <rect class="cls-2" x="200.83" y="142.45" width="44.52" height="44.52"/>
    <rect class="cls-2" x="181.41" y="178.84" width="44.52" height="44.52"/>
    <rect class="cls-2" x="281.41" y="142.84" width="44.52" height="44.52"/>
    <rect class="cls-2" x="301.41" y="178.84" width="44.52" height="44.52"/>
  </g>
</svg>